<svg xmlns="http://www.w3.org/2000/svg" width="2517.86" height="775.477" viewBox="0 0 2517.86 775.477">
  <g id="Logo" transform="translate(-470 -409)">
    <g id="Logo-2" data-name="Logo" transform="translate(470 409)">
      <g id="Gruppe_2" data-name="Gruppe 2">
        <path id="Pfad_2" data-name="Pfad 2" d="M339.269,249.621C206.364,249.621,72.852,226.143,0,175.98V331.833C0,392.75,152.065,442.579,339.269,442.579s339.269-49.8,339.269-110.762V176.011C605.687,226.143,472.251,249.621,339.269,249.621ZM0,418.346V574.2c0,60.888,152.065,110.718,339.269,110.718s339.269-49.8,339.269-110.763V418.346C605.641,468.525,472.1,492,339.269,492S72.9,468.479,0,418.346Z" transform="translate(0 90.559)" fill="#219de1"/>
        <path id="Pfad_3" data-name="Pfad 3" d="M678.539,110.747V180.04c0,60.932-152.065,110.762-339.269,110.762S0,240.972,0,180.085V110.747C0,49.8,152.065,0,339.269,0S678.539,49.8,678.539,110.747Z" fill="#a6d8f3"/>
      </g>
      <g id="Gruppe_3" data-name="Gruppe 3" transform="translate(141.739 212.339)">
        <path id="Shadow" d="M320.217,34.822c-.8-.854-1.658-1.708-2.512-2.512s-1.658-1.708-2.512-2.512-1.658-1.708-2.512-2.512-1.658-1.708-2.512-2.512-1.658-1.708-2.512-2.512S306,20.554,305.145,19.75s-1.658-1.708-2.512-2.512a132.918,132.918,0,0,1,39.735,92.731c0,83.237-84.493,150.952-188.376,150.952-58.171,0-110.213-21.249-144.824-54.554l2.512,2.512,2.512,2.512L16.7,213.9l2.512,2.512,2.512,2.512,2.512,2.512,2.512,2.512c34.561,34.712,87.758,57.065,147.335,57.065,103.883,0,188.376-67.715,188.376-150.7C362.463,94.851,347.192,61.245,320.217,34.822Z" transform="translate(34.383 66.851)"/>
        <g id="Body">
          <path id="Background" d="M354.636,167.264c0,76.4-78.716,138.343-175.818,138.343S3,243.669,3,167.264c0-47.37,30.14-89.215,76.456-114.03S154.6,3,178.818,3s44.909,20.747,99.362,50.234C324.5,78.049,354.636,119.894,354.636,167.264Z" transform="translate(9.558 9.558)" fill="#fbf0df"/>
          <path id="Bottom_Shadow" data-name="Bottom Shadow" d="M314.885,58.955a108.859,108.859,0,0,0-4.019-29.035C297.152,197.2,93.1,205.235,12.88,155.2a200.934,200.934,0,0,0,126.187,42.1C236.018,197.3,314.885,135.26,314.885,58.955Z" transform="translate(49.309 117.867)" fill="#f6dece"/>
          <path id="Light_Shine" data-name="Light Shine" d="M111.153,44.041c22.454-13.463,52.293-38.73,81.63-38.78A46.667,46.667,0,0,0,178.818,3C166.661,3,153.7,9.279,137.375,18.723c-5.676,3.315-11.554,6.982-17.783,10.8-11.7,7.234-25.117,15.422-40.187,23.61C31.583,79,3,121.652,3,167.264v5.978C33.442,65.692,88.749,57.5,111.153,44.041Z" transform="translate(9.558 9.558)" fill="#fffefc"/>
          <path id="Top" d="M90.25,8.987A82.433,82.433,0,0,1,61.969,71.628c-1.406,1.256-.3,3.667,1.507,2.964C80.4,68.011,103.261,48.32,93.616,8.585,93.214,6.324,90.25,6.927,90.25,8.987Zm11.4,0a81.579,81.579,0,0,1,8.088,67.665c-.6,1.758,1.557,3.265,2.763,1.808,11-14.065,20.6-42-8.138-72.136-1.457-1.306-3.717.7-2.713,2.461Zm13.865-.854a82.484,82.484,0,0,1,34.41,59.075,1.658,1.658,0,0,0,3.265.553c4.622-17.532,2.009-47.421-36.017-62.943a1.776,1.776,0,0,0-1.658,3.114ZM22.786,60.376a85.1,85.1,0,0,0,52.6-45.21c.9-1.808,3.768-1.1,3.315.9-8.69,40.19-37.775,48.58-55.859,47.474C20.928,63.591,20.978,60.928,22.786,60.376Z" transform="translate(83.659 16.281)" fill="#ccbea7" fill-rule="evenodd"/>
          <path id="Outline" d="M188.876,328.275C84.993,328.275.5,260.56.5,177.322c0-50.234,31.044-97.1,83.036-125.182,15.07-8.037,27.98-16.125,39.484-23.208,6.329-3.918,12.307-7.585,18.084-11C158.736,7.482,173.806.5,188.876.5s28.231,6.028,44.708,15.773c5.023,2.863,10.047,5.978,15.422,9.394,12.508,7.736,26.624,16.477,45.21,26.473,51.992,28.081,83.036,74.9,83.036,125.182C377.252,260.56,292.759,328.275,188.876,328.275Zm0-315.216c-12.157,0-25.117,6.279-41.443,15.723-5.676,3.315-11.554,6.982-17.783,10.8C117.95,46.816,104.533,55,89.463,63.192c-47.822,25.87-76.405,68.518-76.405,114.13,0,76.3,78.867,138.394,175.818,138.394s175.818-62.089,175.818-138.394c0-45.612-28.583-88.261-76.456-114.03C269.25,53.245,254.431,43.8,242.425,36.367c-5.476-3.366-10.5-6.48-15.07-9.243-15.221-9.042-26.322-14.066-38.479-14.066Z" transform="translate(-0.5 -0.5)"/>
        </g>
        <g id="Mouth" transform="translate(150.742 206.608)">
          <g id="Background-2" data-name="Background" transform="translate(3.041 2.79)">
            <path id="Pfad_1" data-name="Pfad 1" d="M101.121,46.28A44.86,44.86,0,0,1,86.453,69.94,34.208,34.208,0,0,1,66.36,79.384,34.36,34.36,0,0,1,45.613,69.94,44.858,44.858,0,0,1,31.145,46.28a3.617,3.617,0,0,1,4.019-4.069H97.153a3.617,3.617,0,0,1,3.968,4.069Z" transform="translate(-31.114 -42.185)" fill="#b71422"/>
          </g>
          <g id="Tongue" transform="translate(14.175 11.457)">
            <path id="Background-3" data-name="Background" d="M36.7,61.389a34.713,34.713,0,0,0,20.7,9.544,34.712,34.712,0,0,0,20.646-9.544,53.388,53.388,0,0,0,5.023-5.375,34.311,34.311,0,0,0-24.614-11.6A30.893,30.893,0,0,0,33.33,58.375C34.485,59.43,35.49,60.435,36.7,61.389Z" transform="translate(-33.33 -41.898)" fill="#ff6164"/>
            <path id="Outline-2" data-name="Outline" d="M37.177,59.432A26.926,26.926,0,0,1,58.225,48.984a30.141,30.141,0,0,1,20.093,8.489c1.155-1.256,2.261-2.562,3.315-3.868a35.163,35.163,0,0,0-23.66-9.695A31.95,31.95,0,0,0,33.41,55.765a47.868,47.868,0,0,0,3.767,3.667Z" transform="translate(-33.008 -43.91)"/>
          </g>
          <path id="Outline-3" data-name="Outline" d="M68.594,84.633A37.273,37.273,0,0,1,46.24,74.586,47.823,47.823,0,0,1,30.618,49.218a6.029,6.029,0,0,1,1.306-5.024A7.083,7.083,0,0,1,37.6,41.633H99.588a7.233,7.233,0,0,1,5.676,2.562,5.978,5.978,0,0,1,1.256,5.024h0A47.821,47.821,0,0,1,90.9,74.586,37.274,37.274,0,0,1,68.594,84.633ZM37.6,47.46c-.8,0-1,.352-1.055.452A41.644,41.644,0,0,0,50.259,69.864a31.3,31.3,0,0,0,18.335,8.791,31.547,31.547,0,0,0,18.335-8.69,41.694,41.694,0,0,0,13.664-21.952,1.055,1.055,0,0,0-1-.452Z" transform="translate(-30.508 -41.629)"/>
        </g>
        <g id="Face" transform="translate(83.388 137.037)">
          <ellipse id="Right_Blush" data-name="Right Blush" cx="29.387" cy="17.28" rx="29.387" ry="17.28" transform="translate(152.057 45.009)" fill="#febbd0"/>
          <ellipse id="Left_Bluch" data-name="Left Bluch" cx="29.387" cy="17.28" rx="29.387" ry="17.28" transform="translate(0 45.009)" fill="#febbd0"/>
          <path id="Eyes" d="M47.828,83.138A27.679,27.679,0,1,0,20.2,55.459,27.679,27.679,0,0,0,47.828,83.138Zm124.429,0a27.679,27.679,0,1,0-27.478-27.679,27.679,27.679,0,0,0,27.478,27.679Z" transform="translate(-4.628 -27.78)" fill-rule="evenodd"/>
          <path id="Iris" d="M32.288,50.3A10.4,10.4,0,1,0,21.94,39.9,10.4,10.4,0,0,0,32.288,50.3Zm124.429,0a10.3,10.3,0,1,0-.1,0Z" transform="translate(2.373 -20.86)" fill="#fff" fill-rule="evenodd"/>
        </g>
      </g>
    </g>
    <path id="BunORM" d="M184.26-160.19c24.07-12.865,39.84-36.52,39.84-68.06,0-49.385-38.6-83-86.735-83H31.125V0H161.85c47.725,0,85.9-33.2,85.9-82.585C247.755-123.67,220.78-151.06,184.26-160.19Zm2.075-64.74c0,29.465-23.655,53.535-53.12,53.535H68.89v-106.24h64.325A52.869,52.869,0,0,1,186.335-224.93ZM156.87-33.615H68.89v-106.24h87.98c29.465,0,53.12,24.07,53.12,52.705C209.99-57.685,186.335-33.615,156.87-33.615ZM446.125-207.5V-82.17c0,29.88-24.9,53.535-55.61,53.535-30.295,0-54.365-23.655-54.365-53.535V-207.5H299.63V-78.435c0,45.65,35.69,82.585,81.755,82.585A83.424,83.424,0,0,0,447.37-27.805L449.445,0H483.06V-207.5Zm201.69-4.15a86.225,86.225,0,0,0-67.23,31.54l-1.66-27.39H545.31V0h36.52V-125.33c0-29.88,24.9-53.95,56.025-53.95,30.71,0,53.95,22.41,53.95,52.29V0H728.74V-131.14C728.74-178.035,694.295-211.65,647.815-211.65ZM931.26,4.15c87.98,0,151.89-71.38,151.89-159.775S1019.24-315.4,931.26-315.4c-88.395,0-151.89,71.38-151.89,159.775S842.865,4.15,931.26,4.15Zm0-36.105c-68.89,0-116.2-54.365-116.2-123.67S862.37-279.3,931.26-279.3c69.3,0,115.785,54.365,115.785,123.67S1000.565-31.955,931.26-31.955ZM1266.58-141.1c39.84-6.64,70.55-40.255,70.55-82.17a87.672,87.672,0,0,0-87.565-87.98H1135.44V0H1173.2V-139.025H1228.4L1302.685,0h42.33ZM1173.2-170.15V-277.635h75.53A53.4,53.4,0,0,1,1302.27-224.1a53.491,53.491,0,0,1-53.535,53.95Zm481.815-141.1L1537.99-137.78,1421.375-311.25H1381.12V0h37.765V-256.055l118.69,179.7L1657.51-256.47V0h37.35V-311.25Z" transform="translate(1293 916.365)" fill="#1e8fcc"/>
  </g>
</svg>
